<svg width="88" height="88" viewBox="0 0 88 88" fill="none" xmlns="http://www.w3.org/2000/svg">
<path fill-rule="evenodd" clip-rule="evenodd" d="M37.4291 0.378302C33.8166 1.32536 31.1042 3.74892 29.6828 7.29907L29.1565 8.6135L29.0596 18.7917L28.9627 28.9698L18.8887 29.0689C9.73632 29.1589 8.72621 29.2005 7.84609 29.5247C4.8917 30.6129 2.57623 32.551 1.30497 34.9998C0.187531 37.1523 0.00619926 38.263 0.00290584 42.9769L0 47.0967H13.4217H26.8431L30.3247 37.3547C34.0125 27.035 34.3277 26.3576 35.306 26.6502C36.4574 26.9943 36.3752 26.5123 37.4834 39.4244C38.0477 46.0021 38.5419 51.4161 38.5814 51.4556C38.621 51.4952 39.4806 48.5102 40.4918 44.8226C41.5029 41.1348 42.489 37.9132 42.6833 37.6635C43.1147 37.1085 44.1572 37.0463 44.6105 37.5486C44.7816 37.7382 45.3645 39.8545 45.9324 42.3468C46.4909 44.7993 46.999 46.8675 47.0618 46.9427C47.1244 47.0179 47.951 43.79 48.8986 39.7695C49.8461 35.7491 50.7334 32.1791 50.8704 31.8364C51.1199 31.2119 51.7226 30.9002 52.4167 31.0367C53.2647 31.2034 53.3953 31.7943 54.7566 41.6198C55.4843 46.8712 56.1307 51.1679 56.1931 51.1679C56.2555 51.1679 56.542 50.3808 56.8297 49.4186C57.6726 46.6011 55.726 46.9028 73.0595 46.9028H88L87.9041 42.5892C87.8003 37.9094 87.6774 37.2198 86.5495 34.9798C85.8354 33.562 83.4402 31.1276 82.011 30.3672C81.4595 30.0737 80.3341 29.6612 79.5099 29.4502C78.1164 29.0937 77.3421 29.0668 68.4528 29.0668H58.8941L58.8908 19.7125C58.8869 9.167 58.8412 8.70268 57.5469 6.07439C56.1387 3.21539 53.1963 0.941493 50.0381 0.271867C49.0846 0.0696608 47.3656 -0.00497886 43.7831 0.000255624C39.5567 0.00665333 38.6388 0.0611305 37.4291 0.378302ZM32.083 40.54C28.9695 49.2449 28.935 49.3293 28.3699 49.5869C28.0134 49.7496 24.0875 49.8108 14.0364 49.8108C6.42295 49.8108 0.194699 49.8762 0.195862 49.9562C0.201286 50.3349 0.788871 51.9837 1.22573 52.8466C2.56596 55.4932 5.10654 57.6027 8.03982 58.5041C8.83528 58.7484 10.7929 58.8213 18.9856 58.9107L28.9627 59.0196L29.0596 69.1978L29.1565 79.376L29.6828 80.6904C31.1188 84.2772 33.831 86.6798 37.5055 87.6203C38.8027 87.9522 39.6489 88.0028 43.8625 87.9999C47.3402 87.9974 49.0973 87.9171 50.0381 87.7176C53.1963 87.048 56.1387 84.7741 57.5469 81.9151C58.841 79.2872 58.8869 78.8215 58.8908 68.2866L58.8941 58.9421L68.9197 58.8733C77.4826 58.8147 79.0748 58.7595 79.8337 58.4948C83.6343 57.1692 86.5331 54.2082 87.4345 50.7304L87.7239 49.6144L73.6546 49.6641L59.5855 49.7139L58.3129 53.8102C57.613 56.0631 56.9374 58.1327 56.8115 58.4092C56.5819 58.9134 55.9219 59.2081 55.2975 59.0854C54.4486 58.9184 54.3116 58.3138 53.0653 49.2292C52.3997 44.3776 51.8005 40.3432 51.7334 40.2637C51.6666 40.1844 50.8862 43.1943 49.9992 46.9522C48.256 54.3383 48.1031 54.7295 47.0049 54.6182C46.6672 54.5839 46.295 54.3641 46.0875 54.076C45.8886 53.8001 45.313 51.7125 44.7512 49.2292C44.2084 46.8301 43.7025 44.7111 43.6272 44.5205C43.5392 44.2985 42.7345 46.9113 41.3878 51.7906C40.2315 55.9798 39.1698 59.6877 39.0286 60.0305C38.5937 61.0855 37.0306 61.0915 36.6368 60.0398C36.5463 59.7986 36.0176 54.1487 35.4618 47.4844C34.906 40.8201 34.3914 35.2088 34.3182 35.0147C34.2285 34.7764 33.5024 36.5713 32.083 40.54Z" fill="#F6F6F6"/>
</svg>
