<svg width="92" height="92" viewBox="0 0 92 92" fill="none" xmlns="http://www.w3.org/2000/svg">
<path fill-rule="evenodd" clip-rule="evenodd" d="M42.7054 0.386976C38.1017 1.28978 33.3144 5.18413 31.1623 9.77776C30.1702 11.8951 30.0455 12.6508 30.0475 16.5148C30.05 20.4469 30.1632 21.0981 31.2203 23.2569C32.8473 26.58 35.8555 29.5326 39.2554 31.1434C41.8028 32.3501 42.4282 32.4736 46 32.4736C49.5718 32.4736 50.1972 32.3501 52.7446 31.1434C56.1428 29.5334 59.1506 26.5821 60.7822 23.2569C61.8435 21.0944 61.955 20.4535 61.955 16.5148C61.955 12.6541 61.829 11.893 60.8377 9.77776C58.6073 5.01709 53.9029 1.28896 48.9481 0.355059C46.3941 -0.126191 45.2934 -0.120802 42.7054 0.386976ZM47.9279 10.2665C45.5309 12.7801 45.2284 13.6195 46.0609 15.4466C46.4277 16.252 46.4161 16.635 46.0104 17.1242C44.9892 18.3549 44.3423 17.8695 44.3423 15.8723C44.3423 13.4673 43.492 11.8379 41.5479 10.5164C38.3615 8.3506 34.8092 9.70066 34.8125 13.0765C34.8154 16.252 37.6363 18.9974 40.899 19.0003C41.8542 19.0011 42.7622 19.2063 42.9163 19.4562C43.0709 19.7058 42.3055 20.8158 41.2156 21.9226C39.531 23.6329 39.3138 24.0312 39.7668 24.5771C40.55 25.5214 40.8642 25.4053 43.0452 23.3642L45.0282 21.5093L46.4467 22.9841C48.4695 25.0874 49.2631 25.4492 50.0737 24.6389C50.6796 24.0324 50.5635 23.802 48.692 21.9018L46.6486 19.8268L47.5176 18.9576C48.351 18.1244 48.4314 18.1178 49.4695 18.798C51.0343 19.8235 52.4707 19.3095 55.0135 16.8133C57.2219 14.6454 57.7184 13.3757 56.5348 12.9214C56.0993 12.7544 55.1395 13.4018 53.6667 14.8568C52.0882 16.4158 51.2494 16.965 50.7434 16.771C50.1566 16.5455 50.4438 16.0684 52.4015 14.0153C53.7036 12.6499 54.6928 11.3011 54.5999 11.0184C54.2062 9.82253 52.7844 10.3195 50.7807 12.3544C49.6502 13.5026 48.5781 14.4423 48.3986 14.4423C47.605 14.4423 48.2237 13.3256 50.1417 11.2974C51.4906 9.87061 52.1246 8.88242 51.9622 8.4592C51.4997 7.25338 50.2805 7.79929 47.9279 10.2665ZM10.2224 8.50106C10.0703 8.65278 9.94595 10.9865 9.94595 13.687V18.5965L4.97297 27.4654L0 36.3348V39.5883C0 43.5742 0.44591 45.2269 2.06544 47.2427L3.31532 48.7983V69.8796C3.31532 85.724 3.43881 91.0849 3.81261 91.4587C4.53411 92.1804 87.4659 92.1804 88.1874 91.4587C88.5612 91.0849 88.6847 85.724 88.6847 69.8796V48.7983L89.9346 47.2427C91.5541 45.2269 92 43.5742 92 39.5883V36.3348L87.0399 27.4886L82.0802 18.6425L81.9633 13.5374L81.8468 8.43184L72.3717 8.32034C63.4522 8.21546 62.9131 8.25194 63.182 8.94211C64.1808 11.5059 64.727 14.9053 64.5463 17.4317L64.3461 20.228L72.1943 20.3404L80.0421 20.4527L84.1149 27.7067L88.1874 34.9607L67.0937 35.068C55.4922 35.1273 36.5078 35.1273 24.9063 35.068L3.81261 34.9607L7.88506 27.7067L11.9579 20.4527L19.8057 20.3404L27.6539 20.228L27.4537 17.4317C27.2734 14.9082 27.8192 11.5055 28.8151 8.94998C29.079 8.27225 28.4864 8.22458 19.7982 8.22458C14.6831 8.22458 10.374 8.34894 10.2224 8.50106ZM37.5265 12.1998C36.7134 13.0126 36.7204 13.1341 37.6641 14.6827C38.0921 15.3849 39.0362 16.2052 39.7618 16.5057C40.9135 16.9828 41.17 16.9638 41.7763 16.3573C42.4269 15.707 42.4182 15.5648 41.6457 14.1438C40.6014 12.2238 38.4958 11.2302 37.5265 12.1998ZM2.90256 40.6602C2.90463 44.5566 3.76661 46.1144 6.30076 46.7979C8.42256 47.3703 11.5945 47.0711 12.9716 46.1682C14.4204 45.219 14.9189 43.7773 14.9189 40.5371V37.655H8.90991H2.9009L2.90256 40.6602ZM32.3243 40.1553C32.3243 44.7017 33.7723 46.5923 37.6023 47.0458C40.0942 47.3409 42.2073 46.7142 43.5545 45.28C44.3925 44.3879 44.5694 43.7139 44.6954 40.9396L44.8446 37.655H38.5845H32.3243V40.1553ZM62.1622 40.3224C62.1622 43.369 62.5592 44.6814 63.8422 45.8773C65.8161 47.7165 71.0141 47.5179 73.0045 45.527C74.1019 44.4294 74.1802 44.1276 74.1802 41.003V37.655H68.1712H62.1622V40.3224ZM14.5729 48.1795C12.9654 49.3331 12.4092 49.4839 9.2891 49.6149L5.8018 49.7608V69.4079V89.0546H20.2785H34.7553L34.8866 76.7228L35.018 64.3911L36.1191 62.3185C38.1982 58.4043 41.7854 56.1733 46 56.1733C50.2146 56.1733 53.8018 58.4043 55.8809 62.3185L56.982 64.3911L57.1133 76.7228L57.2447 89.0546H71.7215H86.1982V69.4079V49.7608L82.7092 49.6149C79.5771 49.4835 79.0288 49.3335 77.3492 48.1492C75.6688 46.9645 75.423 46.8974 74.9328 47.4897C73.8702 48.7743 71.1641 49.6572 68.2615 49.6667C65.2226 49.6767 63.1704 49.0263 61.7469 47.6025C60.8472 46.7026 60.8414 46.7021 59.9492 47.5175C58.2215 49.096 56.4901 49.6759 53.5071 49.6759C50.1732 49.6759 48.7384 49.2323 47.1396 47.7065L46 46.6192L44.8604 47.7065C43.2615 49.2323 41.8268 49.6759 38.4929 49.6759C35.4892 49.6759 33.7777 49.096 32.0106 47.4798L31.0757 46.6246L29.9385 47.7094C28.3654 49.2108 26.9104 49.6759 23.7886 49.6759C21.015 49.6759 18.6528 48.9459 17.204 47.6414C16.3926 46.9106 16.3196 46.9256 14.5729 48.1795ZM17.0478 55.2175C14.9077 55.9922 12.4179 58.3122 11.4673 60.418C10.7114 62.0922 10.5891 63.3353 10.4391 70.8612C10.3197 76.8327 10.4126 79.6733 10.7478 80.2992C11.2194 81.1809 11.3682 81.1929 20.4286 81.0831L29.6306 80.9716L29.755 71.8523C29.8287 66.4657 29.7061 62.139 29.4562 61.2822C28.0608 56.5041 21.8624 53.4749 17.0478 55.2175ZM67.7273 55.637C65.3598 56.7396 63.1758 59.118 62.5438 61.2822C62.2939 62.139 62.1713 66.4657 62.245 71.8523L62.3694 80.9716L71.4575 81.0835C76.4557 81.1453 80.6939 81.047 80.8755 80.8655C81.057 80.6839 81.2215 76.4227 81.241 71.3959C81.282 60.8636 81.047 59.8032 78.0939 57.2034C75.026 54.502 71.3547 53.9474 67.7273 55.637ZM18.0838 57.7448C16.1431 58.4362 14.2766 60.1502 13.7175 61.7548L13.3044 62.9403H20.1206C27.6518 62.9403 27.6833 62.927 26.0033 60.4333C24.2669 57.8563 20.9412 56.7276 18.0838 57.7448ZM70.15 57.5354C68.2843 57.9844 66.8202 59.0269 65.8737 60.5792C64.434 62.9411 64.4315 62.9403 71.8905 62.9403H78.718L78.2866 61.8004C77.1101 58.6944 73.4048 56.752 70.15 57.5354ZM17.0515 69.9389C15.5434 71.2902 14.8812 72.1793 14.984 72.7141C15.2529 74.1106 16.3159 73.7773 18.8509 71.5012C21.0353 69.5401 21.2648 69.1919 20.7688 68.5938C19.9358 67.5903 19.4932 67.7507 17.0515 69.9389ZM68.482 70.0322C66.2135 72.2299 65.8554 73.0411 66.9656 73.4672C68.1948 73.9394 72.8342 69.7395 72.3833 68.5635C71.9415 67.412 70.7074 67.8767 68.482 70.0322ZM21.7588 72.5934C20.0005 74.1918 19.4025 74.9968 19.5968 75.5037C20.0465 76.6751 21.2304 76.2689 23.6216 74.1238C25.5167 72.4235 25.8259 71.9588 25.4571 71.3686C24.7049 70.1652 24.2723 70.3086 21.7588 72.5934ZM73.2349 72.6146C71.5317 74.1877 70.9158 75.0262 71.1036 75.5158C71.5325 76.6337 72.5035 76.3216 74.8606 74.3074C77.0931 72.3995 77.6414 71.1198 76.4255 70.6531C76.0649 70.5147 75.7388 70.4015 75.7002 70.4015C75.6621 70.4019 74.5527 71.3976 73.2349 72.6146ZM40.2811 71.7279C39.5049 72.5043 39.6404 76.0608 40.458 76.3746C41.5438 76.7916 42.2703 75.8229 42.2703 73.9572C42.2703 72.4144 41.7303 71.2305 41.027 71.2305C40.8903 71.2305 40.5546 71.4544 40.2811 71.7279Z" fill="#F6F6F6"/>
</svg>
