<svg xmlns="http://www.w3.org/2000/svg" width="135.951" height="66.818" viewBox="0 0 1001.19 492.07" shape-rendering="geometricPrecision" text-rendering="geometricPrecision" image-rendering="optimizeQuality" fill-rule="evenodd" clip-rule="evenodd"><defs><style>.fil2{fill:#76c04e}.fil3{fill:#062}.fil4{fill:#11ab1a}</style></defs><g id="Слой_x0020_1"><g id="_1640269782688"><path d="M181.08 1.88c4.76 9.44 5.32 59.49 4.62 73.58-2.71 54.33-31.83 105.01-68.86 141.79l-45.11 51.57c-27.33 32.4-43.11 67.69-38.77 113.26 2.96 31.05 10.27 40.7 14.76 61.96.49 1.31-2.24 1.06 1.63 1.06 0-25.55 7.02-50.3 14.84-68.02 4.36-9.88 8.67-18.12 14.47-26.97 16.01-24.46 28.01-34.98 47.98-55.07l15.94-14.86c2.45-2.16 3.37-2.35 5.85-4.77 22.38-21.73 31.39-26.41 51.02-53.09 17.44-23.71 27.61-66.15 23.97-100.02-3.36-31.24-16.13-68.12-28.89-95.4-2.4-5.14-4.36-9.44-6.73-14.52l-5.05-10.92c-1.98-1.88-.68-2.16-1.67.41z" fill="#fbc800"/><path d="M47.71 444.04c-4.48-21.26-11.8-30.9-14.76-61.96-4.34-45.57 11.44-80.86 38.77-113.26l45.11-51.57c37.03-36.78 66.14-87.46 68.86-141.79.7-14.1.14-64.15-4.62-73.58 0 16.52-11.19 50.27-18.4 64.7-2.4 4.81-4.2 8.86-6.89 13.3-10.49 17.32-11.56 19.47-25.55 38.19-13.24 17.72-29.98 34.49-38.4 45.52l-38.7 45.22c-44.67 56.84-69.7 113.26-40.68 186.07 5.07 12.71 21.48 43.44 35.25 49.16z" fill="#fae116"/><path class="fil2" d="M233.17 238.51c4.65 2.92 9.67 31.53 10.51 38.92 1.67 14.74.99 30.19-2.17 44.43-4.83 21.74-19.26 51.62-33.88 64.87.23.14.61.01.74.31 1.09 2.52 17.84-1.02 20.31-1.63 19-4.68 36.1-12.49 51.06-24.37 20.47-16.26 29.92-36.41 24.64-74.29-3.85-27.6-15.92-53.43-27.75-73.17-3.65-6.09-34.91-54.2-42.82-58.48 4.2 22.86 5.82 61.65-.63 83.42z"/><path class="fil3" d="M95.17 426.81c-6.46 6.62-9.09 10.74-17.24 17.13-4.2 3.29-14.54 10.87-20.08 12.82l7.21 5.57c3.07 2.05 5.46 3.31 8.52 5.29 5.82 3.77 10.95 6.29 17.19 9.37 50.2 24.76 105.83 17.17 150.15-9.23 27.6-16.44 49.9-44.41 60.08-74.84 5.21-15.56 6.5-27.32 6.5-47.92-2.29 3.33-7.01 18.91-13.09 29.63-14.55 25.67-34.26 47.88-63.68 60.65-49 21.28-89.71 7.24-135.56-8.48z"/><path class="fil4" d="M90.2 356.93c1.02 10.13 4.67 20.11 5.56 32.06.89 11.87 1.67 26.43-.6 37.82 45.84 15.72 86.56 29.75 135.56 8.48 29.42-12.77 49.12-34.98 63.68-60.65 6.08-10.73 10.8-26.3 13.09-29.63-1.33-3.45.31-2.97-8.34 7.84-7.3 9.13-23.29 22.33-32.87 28.74-40.6 27.17-85.55 29.17-129.07 10.72-6.89-2.92-19.95-11.46-25.44-15.99L90.2 356.94z"/><path class="fil3" d="M172.57 282.52c10.17 15.7 39.45 26 39.31 71.23-.08 24.57-3.32 21.48-4.25 33 14.62-13.25 29.05-43.13 33.88-64.87 3.17-14.25 3.84-29.7 2.17-44.43-.84-7.39-5.86-36-10.51-38.92-.5.21-36.68 34-60.6 44.01zM920.45 428.11h15.93c0-15.11 2.13-30.57 2.13-45.68l15.93 37.18h11.68c3.13-5.91 5.37-11.74 8.2-18.35 1.52-3.54 6.31-15.97 8.8-18.83l2.12 45.68h15.94c0-18.9-2.01-35.93-3.23-54.14-.37-5.51-1.97-12.83-2.09-18.1h-15.93c-1.38 5.91-15.45 30.24-18.06 41.43-2.97-2.17-2.35-2.81-5.16-9.71-2.83-6.95-11.33-26.21-15.02-31.72h-15.93c-.45 5.36-1.87 11.09-2.12 17-.85 19.9-3.19 32.47-3.19 55.23zM408.41 307h-10.62v-18.06c14.8 0 23.37-1.93 23.37 9.56 0 4.06-.97 5.23-4.02 6.6-1.79.8-5.66 1.9-8.73 1.9zm2.13-31.87h-12.75v-14.87h10.62c5.56 0 10.63 2.13 10.63 7.43 0 4.16-3.96 7.44-8.5 7.44zm-29.75-26.56v70.11c15.98 3.72 48.13 5.54 56.02-10.91 4.76-9.93 1.29-23.73-8.21-26.28 2.13-8 6.37-.48 6.37-18.06 0-20.34-39.68-18.25-54.18-14.87zM659.12 395.18c0-7.54-.23-13.93 5.08-20.42 6-7.33 32.1-14.33 32.1 20.42 0 5.16-2.62 11.03-5.08 14.04-1.63 1.99-3.16 3.06-5.51 4.06-15.58 6.62-26.6-5.53-26.6-18.09zm-18.06-4.25c0 53.3 73.3 51.56 73.3 1.06 0-42.15-53.59-52.54-69.78-16.67-1.27 2.81-3.51 12.2-3.51 15.61zM592.19 388.8v-19.12c6.42 0 25.82-1.44 20.21 12.68-2.66 6.7-13.52 6.45-20.21 6.45zm-16.99-29.75v69.05h16.99v-25.5c9.26 0 7.67-1.93 15.89 11.73 1.93 3.21 6.57 10.33 7.48 13.76h19.12c-.73-3.13-6.05-12.06-8.03-15.34-1.78-2.95-2.64-4.5-4.49-7.2-1.81-2.65-3.69-4.27-4.47-7.21 9.01-4.77 12.75-8.03 12.75-21.25 0-22.74-30.34-23.9-48.19-21.63-3.8.48-7.05-.56-7.05 3.57zM544.39 319.75h16.99v-29.74h26.56v29.74h17v-72.24h-17v27.62h-26.56v-27.62h-16.99zM754.73 319.75h16.99V290c8.42 5.64 20.55 20.4 25.5 29.75h20.19c-3.97-7.5-15.65-23.68-22.03-30.03-3.06-3.05-5.42-7.04-9.84-8.22l15.19-16.68c2.68-3.21 5.04-4.72 7.74-8.2 2.57-3.32 5.73-5 6.82-9.11H795.1c-.96 3.6-2.48 4.09-5.06 6.62-3.81 3.75-13.83 16.93-18.31 19.93V247.5h-16.99v72.24zM620.88 319.75h17V290c3.6 2.42 11.06 10.04 13.97 13.65 4.45 5.53 7.62 10.28 11.52 16.1h20.19c-4.83-7.22-9.05-13.47-14.4-20.66-4.01-5.38-12.25-14.1-17.47-17.59l22.57-25.24c3.58-3.82 4.25-4.39 7.18-8.75-4.78 0-12.64-.49-17.03-.04-6.1.62-4.12 2.63-9.78 8.29l-16.74 18.31v-26.56h-17v72.24zM847.15 399.43c0 10.66 3.03 18.35 9.12 23.81l7.2 4.48c12.69 4.93 28.69 2.6 37.09-6.76 10.25-11.44 7.14-45.79 7.14-65.09h-17c0 9.95.93 44.25-1.91 52.27-3.23 9.1-24.65 13.25-24.65-9.78v-42.49h-17v43.55zM447.72 359.06v69.05h52.05V414.3H467.9c-4.81 0-3.19-5.45-3.19-17h29.75c0-17.74 5.22-13.81-29.75-13.81v-13.81h32.93v-13.81H450.9c-2.45 0-3.19.74-3.19 3.19zM692.05 319.75h52.05v-13.81h-35.05v-16.99h28.68v-13.82h-28.68v-13.81h32.93v-13.81h-49.93zM785.54 428.11h52.05V414.3h-35.06v-17h28.68v-13.81h-28.68v-13.81h31.88v-13.81h-48.87zM404.16 389.86h-6.37v-20.19c16.05 0 21.25-1.66 21.25 12.75 0 5.34-8.93 7.43-14.88 7.43zm-23.37-32.94v71.18h17v-23.37c21.27 0 39.31-4.19 39.31-25.5 0-28.26-38.03-26.56-56.3-22.31zM480.65 267.7c0 23.35 36.61 20.93 35.06 32.93-1.66 12.83-29.86 2.59-31.87 2.12l-4.41 13.76c6.85 1.62 11.9 5.36 24.59 5.36 34.75 0 35.77-32.21 15.89-42.45-7.95-4.1-11.14-2.86-21.2-9.6v-7.43c6.53-1.52.23-2.12 12.75-2.12 6.06 0 8.09 2.71 13.81 3.18.82-3.54 2.83-9.78 4.25-12.75-19.14-10.13-48.86-6.34-48.86 17z"/><path class="fil2" d="M57.84 456.76c5.54-1.95 15.89-9.53 20.08-12.82 8.15-6.39 10.78-10.51 17.24-17.13 2.27-11.38 1.49-25.95.6-37.82-.9-11.95-4.55-21.94-5.56-32.06-3.45 1.78-5.47 5.37-7.73 8.7-7.18 10.61-12.51 20.28-16.8 33.13-5.6 16.8-7.83 36.09-7.83 58z"/><path class="fil4" d="M172.57 282.52c23.92-10.01 60.1-43.8 60.6-44.01 6.45-21.77 4.83-60.56.63-83.42-2.95 7.27-3.8 34.47-22.97 71.19-8.58 16.44-21.01 34.9-32.61 49.19-1.94 2.39-4.18 4.92-5.65 7.05z"/><path class="fil3" d="M505.09 369.68h21.25v58.43h17v-55.24c0-5.24 8.38-3.19 22.31-3.19v-13.81H505.1v13.81zM727.11 428.11h48.87V414.3H744.1v-58.43h-16.99zM450.9 319.75h17v-72.24h-17z"/></g></g></svg>