<?xml version="1.0" encoding="UTF-8"?>
<svg id="Layer_1" xmlns="http://www.w3.org/2000/svg" viewBox="0 0 167.48 37.38">
  <defs>
    <style>
      .cls-1 {
        fill: #0033a1;
      }
    </style>
  </defs>
  <g>
    <path class="cls-1" d="M26,.42v14.28c0,2.33.76,4.2,2.28,5.65,1.52,1.47,3.44,2.19,5.77,2.19s4.35-.76,5.78-2.26c1.4-1.48,2.11-3.47,2.12-5.92V.42h-4.96v13.79c0,2.59-1.01,3.91-3,3.91s-3.05-1.32-3.05-3.91V.42h-4.94Z"/>
    <path class="cls-1" d="M72.2,22.14V.52h-4.58l-10.49,18.19-3.3-4.21c1.69-.25,3.05-.99,4.08-2.28,1.01-1.26,1.54-2.75,1.54-4.49,0-2.34-.73-4.16-2.16-5.43-1.43-1.26-3.34-1.91-5.72-1.89h-7.86v21.7h4.89v-7.82l5.46,7.82h1.1l-.02.02h4.82l1.77-3.07h5.61v3.07h4.86ZM50.69,11.18h-2.19v-6.42h2.88c1.03,0,1.82.29,2.41.86.59.57.87,1.37.87,2.39,0,1.28-.39,2.12-1.16,2.54-.76.42-1.69.62-2.82.62ZM63.52,15.98l3.83-6.63v6.63h-3.83Z"/>
    <path class="cls-1" d="M90.98,9.26c-.54.54-.81,1.18-.81,1.94s.27,1.42.81,1.95c.52.52,1.18.79,1.94.81.76-.02,1.42-.29,1.96-.81.52-.54.79-1.18.79-1.95s-.27-1.4-.79-1.94c-.54-.54-1.2-.81-1.96-.81s-1.42.27-1.94.81Z"/>
    <polygon class="cls-1" points="125.22 22.32 129.88 22.32 129.88 9.54 137.3 22.32 141.89 22.32 141.89 .71 137.02 .71 137.02 13.52 129.61 .71 125.03 .71 125.03 17.89 116.29 17.89 116.29 13.49 123.06 13.49 123.06 9.09 116.29 9.09 116.29 4.96 123.21 4.96 123.21 .61 98.18 .61 98.18 22.32 103.12 22.32 103.12 13.72 109.57 13.72 109.57 9.36 103.12 9.36 103.12 4.96 111.35 4.96 111.35 22.32 125.22 22.32"/>
    <path class="cls-1" d="M80.9,18.29c-.79,0-1.42-.34-1.87-.99-.4-.61-.6-1.32-.6-2.13h-4.95c-.02,2.31.66,4.13,1.99,5.43,1.33,1.3,3.17,1.94,5.5,1.94,2.19,0,3.98-.59,5.34-1.76,1.37-1.18,2.04-2.84,2.04-5.02-.02-.74-.1-1.38-.27-1.92-.37-1.1-1.37-2.12-2.99-3.1-1.38-.78-2.78-1.54-4.17-2.28-1.42-.86-2.11-1.74-2.11-2.62,0-.59.22-1.03.67-1.35.41-.32.91-.47,1.52-.47.71,0,1.25.24,1.62.69.37.47.56,1.06.56,1.79h4.82c0-1.99-.64-3.59-1.94-4.79-1.27-1.14-2.9-1.72-4.92-1.72s-3.64.52-4.97,1.55c-1.5,1.16-2.24,2.7-2.24,4.64,0,1.62.74,3.04,2.21,4.25.72.57,2.13,1.38,4.23,2.43,1.67.84,2.63,1.57,2.88,2.16.07.19.1.42.12.69,0,.74-.23,1.35-.67,1.86-.45.49-1.06.72-1.8.72Z"/>
    <path class="cls-1" d="M160.06,10.99l6.73-10.39h-5.63l-3.95,6.73-4.1-6.73h-9.59v21.72h8.78l4.72-7.91,4.85,7.91h5.6l-7.42-11.33ZM148.5,19.73V2.16l5.79,8.74-5.79,8.83Z"/>
    <path class="cls-1" d="M0,4.79h4.29v17.35h7.2l1.77-3.07h5.62v3.07h4.86V.52h-4.57l-9.92,17.16V4.79h4.28V.42H0v4.37ZM18.87,9.36v6.63h-3.83l3.83-6.63Z"/>
  </g>
  <g>
    <path class="cls-1" d="M11.95,37.22v-6.64l-2.31,6.64h-1.34l-2.31-6.64v6.64h-1.64v-8.86h2.25l2.38,6.71,2.36-6.71h2.25v8.86h-1.64Z"/>
    <path class="cls-1" d="M24.88,37.22l-.95-2.29h-3.15l-.98,2.29h-1.81l3.69-8.86h1.29l3.71,8.86h-1.81ZM22.33,30.19l-1.43,3.18h2.91l-1.47-3.18Z"/>
    <path class="cls-1" d="M34.98,37.38c-2.59,0-4.66-2.06-4.66-4.61s2.05-4.55,4.55-4.55c1.82,0,3.41.98,4.19,2.7h-1.83c-.6-.78-1.29-1.11-2.33-1.11-1.69,0-2.93,1.32-2.93,2.98s1.34,3.02,2.97,3.02c.85,0,1.47-.29,2.19-1.04h1.93c-.7,1.62-2.28,2.62-4.09,2.62Z"/>
    <path class="cls-1" d="M48.53,37.22v-3.71h-3.16v3.71h-1.64v-8.86h1.64v3.57h3.16v-3.57h1.64v8.86h-1.64Z"/>
    <path class="cls-1" d="M55.48,37.22v-8.86h1.64v8.86h-1.64Z"/>
    <path class="cls-1" d="M67.78,37.22l-3.7-6.44v6.44h-1.64v-8.86h1.87l3.67,6.45v-6.45h1.64v8.86h-1.83Z"/>
    <path class="cls-1" d="M74.91,37.22v-8.86h4.76v1.57h-3.12v2.09h2.98v1.57h-2.98v2.06h3.12v1.57h-4.76Z"/>
    <path class="cls-1" d="M88.71,37.22l-2.32-3.39v3.39h-1.64v-8.86h2.55c1.21,0,1.84.17,2.42.66.61.52.94,1.28.94,2.18,0,1.38-.72,2.35-2.31,2.74l2.4,3.27h-2.03ZM87.11,29.94h-.73v2.66h.8c1.27,0,1.81-.41,1.81-1.34,0-.79-.32-1.32-1.88-1.32Z"/>
    <path class="cls-1" d="M98.89,33.95v3.27h-1.64v-3.27l-2.91-5.58h1.77l1.96,4.07,1.95-4.07h1.77l-2.91,5.58Z"/>
    <path class="cls-1" d="M120.46,37.22h-1.3l-1.43-5.86-1.46,5.86h-1.29l-2.6-8.86h1.68l1.56,6.18,1.51-6.18h1.2l1.49,6.18,1.57-6.18h1.68l-2.59,8.86Z"/>
    <path class="cls-1" d="M131.52,37.38c-2.6,0-4.66-2.03-4.66-4.58s2.04-4.59,4.67-4.59,4.55,2.05,4.55,4.58-1.99,4.59-4.56,4.59ZM131.51,29.79c-1.7,0-2.99,1.29-2.99,3.01s1.31,2.99,2.99,2.99,2.92-1.28,2.92-2.98-1.28-3.02-2.92-3.02Z"/>
    <path class="cls-1" d="M144.95,37.22l-2.32-3.39v3.39h-1.64v-8.86h2.55c1.21,0,1.84.17,2.42.66.61.52.93,1.28.93,2.18,0,1.38-.72,2.35-2.31,2.74l2.4,3.27h-2.03ZM143.35,29.94h-.73v2.66h.8c1.27,0,1.81-.41,1.81-1.34,0-.79-.32-1.32-1.88-1.32Z"/>
    <path class="cls-1" d="M155.92,37.22l-2.74-3.89v3.89h-1.64v-8.86h1.64v3.82l2.74-3.82h1.98l-3.33,4.35,3.33,4.51h-1.98Z"/>
    <path class="cls-1" d="M164.53,37.38c-1.56,0-2.77-1.01-2.91-2.68h1.71c.07.74.47,1.1,1.2,1.1s1.2-.44,1.2-1.08c0-.36-.15-.7-.41-.9-.26-.21-.36-.24-1.53-.69-1.19-.44-1.85-1.29-1.85-2.41,0-1.4,1.15-2.52,2.58-2.52s2.54.96,2.62,2.52h-1.7c-.05-.6-.38-.93-.94-.93s-.91.37-.91.9c0,.32.17.6.49.8.12.07.14.08.98.4,1.8.67,2.29,1.45,2.29,2.65,0,1.61-1.23,2.84-2.83,2.84Z"/>
  </g>
</svg>