<svg width="512" height="512" viewBox="-20 -20 543 331" fill="none" xmlns="http://www.w3.org/2000/svg">
<rect x="-20" y="-20" width="543" height="331" rx="60" fill="#0a0a0a"/>
<path d="M62.2392 24.6147C80.3284 12.0943 102.542 3.1492 121.929 0.577086C131.29 -0.66397 161.924 0.228454 170.773 2.00098C184.668 4.78436 200.457 11.1213 214.008 19.3521C222.233 24.3476 234.83 33.7512 234.83 34.8947C234.83 36.1982 223.564 51.7683 222.621 51.7683C222.223 51.7683 218.296 49.0427 213.896 45.7117C184.607 23.5404 147.45 16.3006 111.229 25.707C85.6292 32.3548 60.4679 50.0137 44.969 72.2106C29.9476 93.7235 23.2374 114.038 22.3064 140.821C21.7012 158.239 23.1514 169.293 27.9783 184.061C34.5109 204.044 43.4328 218.723 58.1479 233.692C75.4144 251.257 94.3272 261.521 119.441 266.955C131.664 269.6 151.939 269.828 163.741 267.453C207.586 258.632 242.45 227.374 256.528 184.264C260.525 172.025 262.38 161.281 263.082 146.311C263.798 131.022 265.035 123.094 268.189 113.563C273.31 98.09 282.501 83.4739 294.361 71.9406C303.056 63.4854 307.73 60.2349 319.333 54.5753C330.875 48.9451 339.865 46.355 351.935 45.1803C379.839 42.4641 407.568 52.3017 428.216 72.2419C434.093 77.9186 442.124 87.6177 442.124 89.0397C442.124 89.3827 436.079 89.6631 428.691 89.6631H415.259L408.262 83.9713C400.231 77.4373 389.026 71.6517 379.658 69.2009C369.552 66.5558 350.309 66.7765 341.253 69.6404C318.997 76.6775 302.376 90.8123 292.701 110.933C288.18 120.333 284.815 134.515 284.787 144.286C284.66 187.859 265.398 230.174 233.195 257.627C214.618 273.464 190.98 284.943 168.2 289.192C156.187 291.432 129.306 291.5 117.764 289.317C72.479 280.755 33.8862 250.918 14.6144 209.566C3.24744 185.175 -1.73132 158.278 0.53503 133.503C2.95315 107.081 10.5055 85.2038 24.8449 63.0922C32.3361 51.539 50.826 32.5149 62.2392 24.6147Z" fill="url(#paint0_linear_62_122)"/>
<path d="M229.708 89.737C248.448 42.0388 294.703 5.51857 342.641 0.570455C353.163 -0.51618 382.051 0.448244 390.224 2.15825C419.876 8.36353 449.797 26.7075 469.228 50.5926C478.34 61.7934 492.096 84.7122 492.096 88.6921C492.096 89.3031 487.863 89.6631 480.691 89.6631H469.286L463.966 80.8611C457.351 69.9133 451.31 62.5806 441.198 53.2187C418.328 32.0478 392.512 22.0341 360.687 21.9915C345.089 21.9697 333.783 23.8729 320.506 28.7547C287.296 40.9654 259.451 69.4576 247.536 103.42C243.797 114.076 241.498 126.928 240.419 143.19C239.282 160.34 239.055 162.042 236.509 172.557C229.245 202.543 204.558 229.477 174.215 240.52C163.664 244.359 155.902 245.509 140.9 245.455C128.806 245.412 125.853 245.078 117.975 242.867C84.2892 233.411 57.8425 207.176 48.4921 173.937C47.24 169.486 45.9213 163.838 45.5622 161.385L44.9089 156.926H93.598H142.288V167.821V178.716H108.047C81.2677 178.716 73.8088 178.974 73.8162 179.9C73.8319 182.02 80.7476 192.313 86.2214 198.363C109.874 224.504 145.128 230.859 177.006 214.727C191.093 207.599 201.727 196.793 209.716 181.486C214.919 171.519 217.137 163.162 218.226 149.429C220.91 115.591 222.215 108.808 229.708 89.737Z" fill="url(#paint1_linear_62_122)"/>
<path d="M73.3553 73.9898C88.4526 58.3317 111.016 47.292 132.108 45.2428C159.055 42.6243 187.161 51.6726 205.471 68.8579L211.061 74.1063L207.214 84.1816C205.097 89.7228 203.366 94.7524 203.366 95.3578C203.366 95.9631 200.074 93.3313 196.05 89.5087C183.881 77.9451 171.234 71.2974 155.707 68.3018C130.084 63.3584 101.968 73.4479 85.1452 93.625C80.2423 99.5044 73.8069 109.057 73.8069 110.453C73.8069 111.136 84.6501 111.453 108.047 111.453H142.288V122.821V134.19H93.598H44.9089L45.54 129.69C48.2783 110.176 58.8216 89.0625 73.3553 73.9898Z" fill="url(#paint2_linear_62_122)"/>
<path d="M361.612 134.19V122.821V111.453H430.513H499.413L500.374 115.005C502.083 121.32 503.46 143.804 502.855 155.505C501.595 179.884 493.03 205.59 478.989 227.134C472.01 237.841 453.416 257.201 442.452 265.174C427.209 276.26 408.71 284.444 389.049 288.801C376.845 291.505 348.373 291.768 335.184 289.297C317.2 285.928 298.045 277.704 281.002 266.033C266.334 255.989 266.766 257.202 274.219 246.984C277.663 242.263 280.633 238.4 280.818 238.4C281.004 238.4 283.329 240.161 285.986 242.311C301.68 255.015 319.997 263.394 340.79 267.379C351.572 269.446 370.493 269.491 381.509 267.476C418.343 260.739 451.017 236.227 467.832 202.715C476.625 185.191 480.3 170.058 481.538 146.269L482.168 134.19H421.89H361.612Z" fill="url(#paint3_linear_62_122)"/>
<path d="M361.612 178.42V167.673V156.926L403.95 156.933C427.237 156.937 449.04 157.206 452.404 157.532L458.52 158.123L457.347 164.393C453.899 182.831 443.29 203.415 430.668 216.158C417.893 229.055 402.415 238.135 385.211 242.826C377.086 245.04 374.148 245.355 361.15 245.402C344.379 245.463 336.596 243.972 322.978 238.087C315.038 234.655 302.981 226.835 296.045 220.616L292.02 217.007L294.315 211.361C295.577 208.256 296.918 204.687 297.295 203.43C297.671 202.173 298.566 199.704 299.284 197.945L300.591 194.745L307.832 201.47C316.844 209.843 320.132 212.138 329.581 216.655C339.332 221.318 349.293 223.367 362.075 223.337C383.533 223.287 401.264 215.249 416.366 198.724C422.944 191.524 429.95 181.096 428.918 180.039C428.639 179.753 413.381 179.272 395.012 178.97L361.612 178.42Z" fill="url(#paint4_linear_62_122)"/>
<defs>
<linearGradient id="paint0_linear_62_122" x1="253.391" y1="291" x2="253.391" y2="2.21748e-06" gradientUnits="userSpaceOnUse">
<stop stop-color="#E3094C"/>
<stop offset="1" stop-color="#02308B"/>
</linearGradient>
<linearGradient id="paint1_linear_62_122" x1="253.391" y1="291" x2="253.391" y2="2.21748e-06" gradientUnits="userSpaceOnUse">
<stop stop-color="#E3094C"/>
<stop offset="1" stop-color="#02308B"/>
</linearGradient>
<linearGradient id="paint2_linear_62_122" x1="253.391" y1="291" x2="253.391" y2="2.21748e-06" gradientUnits="userSpaceOnUse">
<stop stop-color="#E3094C"/>
<stop offset="1" stop-color="#02308B"/>
</linearGradient>
<linearGradient id="paint3_linear_62_122" x1="253.391" y1="291" x2="253.391" y2="2.21748e-06" gradientUnits="userSpaceOnUse">
<stop stop-color="#E3094C"/>
<stop offset="1" stop-color="#02308B"/>
</linearGradient>
<linearGradient id="paint4_linear_62_122" x1="253.391" y1="291" x2="253.391" y2="2.21748e-06" gradientUnits="userSpaceOnUse">
<stop stop-color="#E3094C"/>
<stop offset="1" stop-color="#02308B"/>
</linearGradient>
</defs>
</svg>
