<svg width="594" height="864" viewBox="0 0 594 864" fill="none" xmlns="http://www.w3.org/2000/svg">
<rect width="66" height="402" transform="matrix(-1 0 0 1 594 462)" fill="url(#paint0_linear_253_38462)"/>
<rect width="66" height="402" transform="matrix(-1 0 0 1 594 462)" fill="url(#paint1_linear_253_38462)"/>
<rect width="66" height="518" transform="matrix(-1 0 0 1 528 346)" fill="url(#paint2_linear_253_38462)"/>
<rect width="66" height="518" transform="matrix(-1 0 0 1 528 346)" fill="url(#paint3_linear_253_38462)"/>
<rect width="66" height="578" transform="matrix(-1 0 0 1 462 286)" fill="url(#paint4_linear_253_38462)"/>
<rect width="66" height="578" transform="matrix(-1 0 0 1 462 286)" fill="url(#paint5_linear_253_38462)"/>
<rect width="66" height="643" transform="matrix(-1 0 0 1 396 221)" fill="url(#paint6_linear_253_38462)"/>
<rect width="66" height="643" transform="matrix(-1 0 0 1 396 221)" fill="url(#paint7_linear_253_38462)"/>
<rect width="66" height="709" transform="matrix(-1 0 0 1 330 155)" fill="url(#paint8_linear_253_38462)"/>
<rect width="66" height="709" transform="matrix(-1 0 0 1 330 155)" fill="url(#paint9_linear_253_38462)"/>
<rect width="66" height="753" transform="matrix(-1 0 0 1 264 111)" fill="url(#paint10_linear_253_38462)"/>
<rect width="66" height="753" transform="matrix(-1 0 0 1 264 111)" fill="url(#paint11_linear_253_38462)"/>
<rect width="66" height="805" transform="matrix(-1 0 0 1 198 59)" fill="url(#paint12_linear_253_38462)"/>
<rect width="66" height="805" transform="matrix(-1 0 0 1 198 59)" fill="url(#paint13_linear_253_38462)"/>
<rect width="66" height="832" transform="matrix(-1 0 0 1 132 32)" fill="url(#paint14_linear_253_38462)"/>
<rect width="66" height="832" transform="matrix(-1 0 0 1 132 32)" fill="url(#paint15_linear_253_38462)"/>
<rect width="66" height="864" transform="matrix(-1 0 0 1 66 0)" fill="url(#paint16_linear_253_38462)"/>
<rect width="66" height="864" transform="matrix(-1 0 0 1 66 0)" fill="url(#paint17_linear_253_38462)"/>
<defs>
<linearGradient id="paint0_linear_253_38462" x1="-1.02915e-06" y1="201.499" x2="66" y2="201.499" gradientUnits="userSpaceOnUse">
<stop stop-color="#8849C3"/>
<stop offset="1" stop-color="#010133"/>
</linearGradient>
<linearGradient id="paint1_linear_253_38462" x1="33" y1="0" x2="33" y2="402" gradientUnits="userSpaceOnUse">
<stop stop-color="#010133"/>
<stop offset="1" stop-color="#666666" stop-opacity="0"/>
</linearGradient>
<linearGradient id="paint2_linear_253_38462" x1="-1.02915e-06" y1="259.643" x2="66" y2="259.643" gradientUnits="userSpaceOnUse">
<stop stop-color="#7221BD"/>
<stop offset="1" stop-color="#010133"/>
</linearGradient>
<linearGradient id="paint3_linear_253_38462" x1="33" y1="0" x2="33" y2="518" gradientUnits="userSpaceOnUse">
<stop stop-color="#010133"/>
<stop offset="1" stop-color="#666666" stop-opacity="0"/>
</linearGradient>
<linearGradient id="paint4_linear_253_38462" x1="-1.02915e-06" y1="289.717" x2="66" y2="289.717" gradientUnits="userSpaceOnUse">
<stop stop-color="#5A1699"/>
<stop offset="1" stop-color="#010133"/>
</linearGradient>
<linearGradient id="paint5_linear_253_38462" x1="33" y1="0" x2="33" y2="578" gradientUnits="userSpaceOnUse">
<stop stop-color="#010133"/>
<stop offset="1" stop-color="#666666" stop-opacity="0"/>
</linearGradient>
<linearGradient id="paint6_linear_253_38462" x1="-1.02915e-06" y1="322.298" x2="66" y2="322.298" gradientUnits="userSpaceOnUse">
<stop stop-color="#4646C0"/>
<stop offset="1" stop-color="#010133"/>
</linearGradient>
<linearGradient id="paint7_linear_253_38462" x1="33" y1="0" x2="33" y2="643" gradientUnits="userSpaceOnUse">
<stop stop-color="#010133"/>
<stop offset="1" stop-color="#666666" stop-opacity="0"/>
</linearGradient>
<linearGradient id="paint8_linear_253_38462" x1="-1.02915e-06" y1="355.38" x2="66" y2="355.38" gradientUnits="userSpaceOnUse">
<stop stop-color="#3131AF"/>
<stop offset="1" stop-color="#010133"/>
</linearGradient>
<linearGradient id="paint9_linear_253_38462" x1="33" y1="0" x2="33" y2="709" gradientUnits="userSpaceOnUse">
<stop stop-color="#010133"/>
<stop offset="1" stop-color="#666666" stop-opacity="0"/>
</linearGradient>
<linearGradient id="paint10_linear_253_38462" x1="-1.02915e-06" y1="377.434" x2="66" y2="377.434" gradientUnits="userSpaceOnUse">
<stop stop-color="#2323B0"/>
<stop offset="1" stop-color="#010133"/>
</linearGradient>
<linearGradient id="paint11_linear_253_38462" x1="33" y1="0" x2="33" y2="753" gradientUnits="userSpaceOnUse">
<stop stop-color="#010133"/>
<stop offset="1" stop-color="#666666" stop-opacity="0"/>
</linearGradient>
<linearGradient id="paint12_linear_253_38462" x1="-1.02915e-06" y1="403.499" x2="66" y2="403.499" gradientUnits="userSpaceOnUse">
<stop stop-color="#0F0F90"/>
<stop offset="1" stop-color="#010133"/>
</linearGradient>
<linearGradient id="paint13_linear_253_38462" x1="33" y1="0" x2="33" y2="805" gradientUnits="userSpaceOnUse">
<stop stop-color="#010133"/>
<stop offset="1" stop-color="#666666" stop-opacity="0"/>
</linearGradient>
<linearGradient id="paint14_linear_253_38462" x1="-1.02915e-06" y1="417.032" x2="66" y2="417.032" gradientUnits="userSpaceOnUse">
<stop offset="0.456731" stop-color="#020259"/>
<stop offset="1" stop-color="#010133"/>
</linearGradient>
<linearGradient id="paint15_linear_253_38462" x1="33" y1="0" x2="33" y2="832" gradientUnits="userSpaceOnUse">
<stop stop-color="#010133"/>
<stop offset="1" stop-color="#666666" stop-opacity="0"/>
</linearGradient>
<linearGradient id="paint16_linear_253_38462" x1="-1.02915e-06" y1="433.072" x2="66" y2="433.072" gradientUnits="userSpaceOnUse">
<stop stop-color="#020259"/>
<stop offset="1" stop-color="#010133"/>
</linearGradient>
<linearGradient id="paint17_linear_253_38462" x1="33" y1="0" x2="33" y2="864" gradientUnits="userSpaceOnUse">
<stop stop-color="#010133"/>
<stop offset="1" stop-color="#666666" stop-opacity="0"/>
</linearGradient>
</defs>
</svg>
