<svg width="1115" height="962" viewBox="0 0 1115 962" fill="none" xmlns="http://www.w3.org/2000/svg">
<path d="M505.372 533.269C517.264 548.135 530.47 564.452 539.734 575.86C550.036 544.885 536.277 501.602 520.928 469.244C517.264 489.364 512.147 510.66 505.372 533.269Z" fill="url(#paint0_linear_253_38521)"/>
<path d="M432.913 418.633C417.633 433.291 403.943 460.671 414.245 503.469C423.509 502.709 436.646 501.672 448.538 500.565C441.763 470.143 436.646 442.97 432.913 418.633Z" fill="url(#paint1_linear_253_38521)"/>
<path opacity="0.2" d="M465.823 571.09C380.365 242.944 450.681 215.08 477.231 203.879C503.781 245.779 574.028 354.746 488.501 584.157L465.823 571.09Z" fill="url(#paint2_linear_253_38521)"/>
<path opacity="0.1" d="M490.99 552.214C405.533 224.138 475.779 196.204 502.399 185.004C528.949 226.903 599.195 335.87 513.669 565.282L490.99 552.214Z" fill="url(#paint3_linear_253_38521)"/>
<path opacity="0.15" d="M488.501 584.157C574.028 354.746 503.781 245.779 477.231 203.879V577.658L488.501 584.157Z" fill="url(#paint4_linear_253_38521)"/>
<path opacity="0.1" d="M502.676 319.415C502.676 339.396 490.922 348.8 476.402 340.434C461.883 332.067 450.129 309.043 450.129 289.061C450.129 269.08 461.883 259.676 476.402 268.042C490.922 276.409 502.676 299.433 502.676 319.415Z" fill="white"/>
<path opacity="0.1" d="M497.49 658.415C491.475 648.597 488.571 636.152 486.012 625.227C483.039 612.644 480.55 601.927 474.328 599.23C467.206 596.119 464.026 604.001 459.532 614.925C456.904 621.355 453.793 628.961 449.23 635.944C444.321 630.759 439.135 626.472 433.673 623.361C410.787 610.155 391.705 621.563 387.211 648.805C384.099 646.454 380.988 644.31 377.807 642.444C341.094 621.286 311.363 645.278 311.363 696.167C311.363 746.986 341.094 805.341 377.738 826.498C413.346 847.033 442.454 824.977 444.113 777.2C450.82 789.646 459.739 800.086 469.626 805.756C472.184 807.208 474.673 808.314 477.024 809.005C491.267 840.327 512.493 867.292 536.209 880.982C579.076 905.734 613.853 877.801 613.923 818.616C613.923 759.431 579.145 691.327 536.278 666.574C522.104 658.415 508.898 655.926 497.49 658.415Z" fill="url(#paint5_linear_253_38521)"/>
<path opacity="0.3" d="M566.561 432.046L753.725 540.114L753.794 637.673L583.155 539.146L566.63 544.539L566.561 432.046Z" fill="url(#paint6_linear_253_38521)"/>
<path d="M699.311 557.261V530.78L769.973 571.574V598.055L699.311 557.261Z" fill="url(#paint7_linear_253_38521)"/>
<path opacity="0.1" d="M614.683 483.557L655.684 507.203V515.776L614.683 492.13V483.557Z" fill="white"/>
<path opacity="0.1" d="M614.752 500.704L688.733 543.433V552.007L614.752 509.277V500.704Z" fill="white"/>
<path opacity="0.15" d="M614.752 517.851L710.512 573.164V581.737L614.752 526.424V517.851Z" fill="white"/>
<path d="M604.589 486.668C604.589 494.688 599.818 498.491 593.941 495.103C588.064 491.715 583.293 482.45 583.293 474.43C583.293 466.409 588.064 462.607 593.941 465.995C599.887 469.383 604.589 478.647 604.589 486.668Z" fill="url(#paint8_linear_253_38521)"/>
<path opacity="0.3" d="M405.117 294.247L217.954 186.248L218.023 283.807L388.662 382.264L405.187 406.74L405.117 294.247Z" fill="url(#paint9_linear_253_38521)"/>
<path d="M197.973 224.276V197.795L268.634 238.588V265.069L197.973 224.276Z" fill="url(#paint10_linear_253_38521)"/>
<path opacity="0.15" d="M356.996 290.237L315.996 266.591V275.164L356.996 298.81V290.237Z" fill="white"/>
<path opacity="0.15" d="M356.996 307.384L277.969 261.751V270.324L356.996 315.958V307.384Z" fill="white"/>
<path opacity="0.15" d="M356.996 324.531L261.236 269.218V277.791L356.996 333.105V324.531Z" fill="white"/>
<path d="M367.09 304.964C367.09 312.984 371.861 322.249 377.738 325.637C383.615 329.025 388.386 325.223 388.386 317.202C388.386 309.182 383.615 299.917 377.738 296.529C371.861 293.21 367.09 296.944 367.09 304.964Z" fill="url(#paint11_linear_253_38521)"/>
<path opacity="0.2" d="M380.227 398.374L268.427 333.865V392.082L380.227 456.591V398.374Z" fill="url(#paint12_linear_253_38521)"/>
<path opacity="0.15" d="M297.051 364.357L335.355 386.482V393.465L297.051 371.34V364.357Z" fill="white"/>
<path opacity="0.15" d="M297.051 378.392L368.681 419.739V426.791L297.051 385.445V378.392Z" fill="white"/>
<path d="M291.174 366.431C291.174 371.202 288.339 373.483 284.813 371.478C281.287 369.473 278.452 363.942 278.452 359.102C278.452 354.331 281.287 352.049 284.813 354.054C288.27 356.129 291.174 361.66 291.174 366.431Z" fill="url(#paint13_linear_253_38521)"/>
<path opacity="0.2" d="M712.24 442.348L600.44 377.839V436.056L712.24 500.634V442.348Z" fill="url(#paint14_linear_253_38521)"/>
<path opacity="0.15" d="M629.064 408.4L667.368 430.525V437.508L629.064 415.383V408.4Z" fill="white"/>
<path opacity="0.15" d="M629.133 422.435L700.763 463.782V470.834L629.133 429.488V422.435Z" fill="white"/>
<path d="M623.187 410.474C623.187 415.245 620.352 417.526 616.826 415.521C613.3 413.516 610.465 407.985 610.465 403.145C610.465 398.374 613.3 396.093 616.826 398.098C620.352 400.172 623.187 405.703 623.187 410.474Z" fill="url(#paint15_linear_253_38521)"/>
<path d="M404.742 157.69C293.565 142.264 206.281 169.07 154.943 224.714C103.617 280.345 88.076 364.96 120.706 465.474C153.339 565.997 227.955 663.301 322.248 739.339C416.539 815.375 530.454 870.104 641.628 885.529C752.805 900.955 840.089 874.149 891.427 818.506C942.753 762.874 958.295 678.26 925.665 577.745C893.032 477.222 818.415 379.918 724.122 303.88C629.831 227.844 515.916 173.116 404.742 157.69Z" stroke="url(#paint16_linear_253_38521)" stroke-width="1.29394"/>
<path d="M417.592 143.338C306.307 127.897 218.828 154.716 167.337 210.525C115.849 266.333 100.315 351.159 132.986 451.798C165.657 552.439 240.344 649.821 334.693 725.903C429.041 801.986 543.041 856.761 654.325 872.202C765.61 887.643 853.089 860.824 904.58 805.014C956.068 749.207 971.601 664.381 938.93 563.741C906.259 463.1 831.572 365.719 737.223 289.637C642.875 213.554 528.876 158.779 417.592 143.338Z" stroke="url(#paint17_linear_253_38521)" stroke-width="0.258789"/>
<path d="M406.432 80.2937C276.243 64.6089 172.973 98.2875 111.171 165.273C49.3789 232.248 28.9155 332.656 64.6105 450.713C100.309 568.782 185.406 682.073 294.166 769.778C402.925 857.48 535.295 919.554 665.484 935.239C795.674 950.924 898.944 917.246 960.746 850.261C1022.54 783.286 1043 682.878 1007.31 564.82C971.607 446.752 886.511 333.46 777.75 245.755C668.992 158.052 536.621 95.9785 406.432 80.2937Z" stroke="url(#paint18_linear_253_38521)" stroke-width="1.29394"/>
<path d="M406.432 80.2937C276.243 64.6089 172.973 98.2875 111.171 165.273C49.3789 232.248 28.9155 332.656 64.6105 450.713C100.309 568.782 185.406 682.073 294.166 769.778C402.925 857.48 535.295 919.554 665.484 935.239C795.674 950.924 898.944 917.246 960.746 850.261C1022.54 783.286 1043 682.878 1007.31 564.82C971.607 446.752 886.511 333.46 777.75 245.755C668.992 158.052 536.621 95.9785 406.432 80.2937Z" stroke="url(#paint19_linear_253_38521)" stroke-opacity="0.2" stroke-width="1.29394"/>
<path d="M455.132 27.5097C319.842 17.3538 209.852 58.2716 141.334 132.539C72.8228 206.799 45.6897 314.494 76.2846 438.082C106.883 561.684 189.425 677.742 298.181 765.446C406.935 853.148 541.854 912.459 677.148 922.615C812.438 932.771 922.429 891.852 990.947 817.585C1059.46 743.325 1086.59 635.631 1056 512.043C1025.4 388.44 942.854 272.382 834.099 184.678C725.345 96.9758 590.426 37.6658 455.132 27.5097Z" stroke="url(#paint20_linear_253_38521)" stroke-width="1.29394"/>
<defs>
<linearGradient id="paint0_linear_253_38521" x1="524.338" y1="469.244" x2="524.338" y2="575.86" gradientUnits="userSpaceOnUse">
<stop stop-color="#6486EF"/>
<stop offset="1" stop-color="#F65F96"/>
</linearGradient>
<linearGradient id="paint1_linear_253_38521" x1="429.601" y1="418.633" x2="429.601" y2="503.469" gradientUnits="userSpaceOnUse">
<stop stop-color="#2276D9"/>
<stop offset="1" stop-color="#BE5ABC"/>
</linearGradient>
<linearGradient id="paint2_linear_253_38521" x1="576.859" y1="215.513" x2="361.931" y2="587.875" gradientUnits="userSpaceOnUse">
<stop stop-color="white"/>
<stop offset="1" stop-color="white" stop-opacity="0"/>
</linearGradient>
<linearGradient id="paint3_linear_253_38521" x1="602.02" y1="196.643" x2="387.091" y2="569.004" gradientUnits="userSpaceOnUse">
<stop stop-color="white"/>
<stop offset="1" stop-color="white" stop-opacity="0"/>
</linearGradient>
<linearGradient id="paint4_linear_253_38521" x1="536.78" y1="296.71" x2="370.864" y2="596.077" gradientUnits="userSpaceOnUse">
<stop stop-color="white" stop-opacity="0"/>
<stop offset="1" stop-color="white"/>
</linearGradient>
<linearGradient id="paint5_linear_253_38521" x1="521.172" y1="657.875" x2="428.34" y2="818.706" gradientUnits="userSpaceOnUse">
<stop stop-color="white"/>
<stop offset="1" stop-color="white" stop-opacity="0"/>
</linearGradient>
<linearGradient id="paint6_linear_253_38521" x1="646.979" y1="435.205" x2="671.179" y2="631.474" gradientUnits="userSpaceOnUse">
<stop stop-color="white"/>
<stop offset="1" stop-color="white" stop-opacity="0"/>
</linearGradient>
<linearGradient id="paint7_linear_253_38521" x1="734.642" y1="530.78" x2="734.642" y2="598.055" gradientUnits="userSpaceOnUse">
<stop stop-color="#6486EF"/>
<stop offset="1" stop-color="#F65F96"/>
</linearGradient>
<linearGradient id="paint8_linear_253_38521" x1="593.941" y1="464.755" x2="593.941" y2="496.342" gradientUnits="userSpaceOnUse">
<stop stop-color="#6486EF"/>
<stop offset="1" stop-color="#F65F96"/>
</linearGradient>
<linearGradient id="paint9_linear_253_38521" x1="364.301" y1="255.183" x2="267.654" y2="330.853" gradientUnits="userSpaceOnUse">
<stop stop-color="white"/>
<stop offset="1" stop-color="white" stop-opacity="0"/>
</linearGradient>
<linearGradient id="paint10_linear_253_38521" x1="233.304" y1="197.795" x2="233.304" y2="265.069" gradientUnits="userSpaceOnUse">
<stop stop-color="#2276D9"/>
<stop offset="1" stop-color="#BE5ABC"/>
</linearGradient>
<linearGradient id="paint11_linear_253_38521" x1="377.738" y1="295.319" x2="377.738" y2="326.877" gradientUnits="userSpaceOnUse">
<stop stop-color="#2276D9"/>
<stop offset="1" stop-color="#BE5ABC"/>
</linearGradient>
<linearGradient id="paint12_linear_253_38521" x1="336.924" y1="373.363" x2="311.711" y2="417.045" gradientUnits="userSpaceOnUse">
<stop stop-color="white"/>
<stop offset="1" stop-color="white" stop-opacity="0"/>
</linearGradient>
<linearGradient id="paint13_linear_253_38521" x1="284.813" y1="353.326" x2="284.813" y2="372.206" gradientUnits="userSpaceOnUse">
<stop stop-color="#2276D9"/>
<stop offset="1" stop-color="#BE5ABC"/>
</linearGradient>
<linearGradient id="paint14_linear_253_38521" x1="668.98" y1="417.391" x2="643.767" y2="461.072" gradientUnits="userSpaceOnUse">
<stop stop-color="white"/>
<stop offset="1" stop-color="white" stop-opacity="0"/>
</linearGradient>
<linearGradient id="paint15_linear_253_38521" x1="616.826" y1="397.369" x2="616.826" y2="416.25" gradientUnits="userSpaceOnUse">
<stop stop-color="#6486EF"/>
<stop offset="1" stop-color="#F65F96"/>
</linearGradient>
<linearGradient id="paint16_linear_253_38521" x1="821.311" y1="198.479" x2="521.975" y2="569.68" gradientUnits="userSpaceOnUse">
<stop stop-color="#8FBCFF" stop-opacity="0.6"/>
<stop offset="1" stop-color="#8FBCFF" stop-opacity="0"/>
</linearGradient>
<linearGradient id="paint17_linear_253_38521" x1="754.804" y1="270.57" x2="366.685" y2="751.869" gradientUnits="userSpaceOnUse">
<stop stop-color="#4C8CED"/>
<stop offset="1" stop-color="#8FBCFF" stop-opacity="0"/>
</linearGradient>
<linearGradient id="paint18_linear_253_38521" x1="909.051" y1="103.383" x2="498.741" y2="612.201" gradientUnits="userSpaceOnUse">
<stop stop-color="white" stop-opacity="0.6"/>
<stop offset="0.34375" stop-color="#8FBCFF" stop-opacity="0.6"/>
<stop offset="1" stop-color="#8FBCFF" stop-opacity="0"/>
</linearGradient>
<linearGradient id="paint19_linear_253_38521" x1="505.272" y1="105.923" x2="467.645" y2="276.285" gradientUnits="userSpaceOnUse">
<stop stop-color="#FF48D7"/>
<stop offset="0.234164" stop-color="white" stop-opacity="0.765836"/>
<stop offset="1" stop-color="#FF48D7" stop-opacity="0"/>
</linearGradient>
<linearGradient id="paint20_linear_253_38521" x1="857.831" y1="158.893" x2="560.785" y2="527.24" gradientUnits="userSpaceOnUse">
<stop stop-color="#3B6FBE" stop-opacity="0.46"/>
<stop offset="1" stop-color="#8FBCFF" stop-opacity="0"/>
</linearGradient>
</defs>
</svg>
